<?xml version="1.0" encoding="UTF-8"?>
<svg version="1.1" xmlns="http://www.w3.org/2000/svg" width="126" height="114">
<path d="M0 0 C5.28 0 10.56 0 16 0 C16 3.96 16 7.92 16 12 C17.98 12 19.96 12 22 12 C22 16.62 22 21.24 22 26 C24.31 26 26.62 26 29 26 C29 34.25 29 42.5 29 51 C29.99 51 30.98 51 32 51 C31.979375 50.030625 31.95875 49.06125 31.9375 48.0625 C32 45 32 45 33 44 C35.97 44 38.94 44 42 44 C42 52.25 42 60.5 42 69 C44.97 69 47.94 69 51 69 C51 65.04 51 61.08 51 57 C54.3 57 57.6 57 61 57 C61 70.53 61 84.06 61 98 C57.7 98 54.4 98 51 98 C51 96.02 51 94.04 51 92 C48.03 92 45.06 92 42 92 C42 93.98 42 95.96 42 98 C38.7 98 35.4 98 32 98 C32 96.02 32 94.04 32 92 C30.02 92 28.04 92 26 92 C25.34 90.68 24.68 89.36 24 88 C23.67 93.28 23.34 98.56 23 104 C15.28515625 104.09765625 15.28515625 104.09765625 13 104 C12 103 12 103 11.9375 100.4375 C11.958125 99.633125 11.97875 98.82875 12 98 C9.03 98 6.06 98 3 98 C3 99.98 3 101.96 3 104 C0.03 104 -2.94 104 -6 104 C-6 98.06 -6 92.12 -6 86 C-6.99 86 -7.98 86 -9 86 C-8.979375 86.804375 -8.95875 87.60875 -8.9375 88.4375 C-9 91 -9 91 -10 92 C-12.33297433 92.04092937 -14.66705225 92.04241723 -17 92 C-16.979375 92.804375 -16.95875 93.60875 -16.9375 94.4375 C-17 97 -17 97 -18 98 C-21.5 98.125 -21.5 98.125 -25 98 C-26 97 -26 97 -26.0625 94.4375 C-26.041875 93.633125 -26.02125 92.82875 -26 92 C-28.97 92 -31.94 92 -35 92 C-35.33 93.98 -35.66 95.96 -36 98 C-38.97 98 -41.94 98 -45 98 C-45 86.45 -45 74.9 -45 63 C-41.7 63 -38.4 63 -35 63 C-35 64.98 -35 66.96 -35 69 C-32.03 69 -29.06 69 -26 69 C-26 60.75 -26 52.5 -26 44 C-23.03 44 -20.06 44 -17 44 C-17 46.31 -17 48.62 -17 51 C-15.02 50.505 -15.02 50.505 -13 50 C-13.01160156 48.85402344 -13.02320312 47.70804688 -13.03515625 46.52734375 C-13.04454242 44.99739748 -13.05364173 43.46744942 -13.0625 41.9375 C-13.07087891 41.18533203 -13.07925781 40.43316406 -13.08789062 39.65820312 C-13.10808341 34.99366882 -12.77595959 30.60076827 -12 26 C-10.02 26 -8.04 26 -6 26 C-6 21.38 -6 16.76 -6 12 C-4.02 12 -2.04 12 0 12 C0 8.04 0 4.08 0 0 Z M3 35 C3 40.28 3 45.56 3 51 C6.3 51 9.6 51 13 51 C13 45.72 13 40.44 13 35 C9.7 35 6.4 35 3 35 Z " fill="#F8F8F8" transform="translate(54,4)"/>
<path d="M0 0 C5.28 0 10.56 0 16 0 C16 3.96 16 7.92 16 12 C17.98 12 19.96 12 22 12 C22 16.62 22 21.24 22 26 C24.31 26 26.62 26 29 26 C29 34.25 29 42.5 29 51 C29.99 51 30.98 51 32 51 C31.979375 50.030625 31.95875 49.06125 31.9375 48.0625 C32 45 32 45 33 44 C35.97 44 38.94 44 42 44 C42 52.25 42 60.5 42 69 C44.97 69 47.94 69 51 69 C51 65.04 51 61.08 51 57 C54.3 57 57.6 57 61 57 C61 70.53 61 84.06 61 98 C57.7 98 54.4 98 51 98 C51 96.02 51 94.04 51 92 C48.03 92 45.06 92 42 92 C42 93.98 42 95.96 42 98 C38.7 98 35.4 98 32 98 C32 96.02 32 94.04 32 92 C30.02 92 28.04 92 26 92 C25.34 90.68 24.68 89.36 24 88 C23.67 93.28 23.34 98.56 23 104 C15.28515625 104.09765625 15.28515625 104.09765625 13 104 C12 103 12 103 11.9375 100.4375 C11.958125 99.633125 11.97875 98.82875 12 98 C9.03 98 6.06 98 3 98 C3 99.98 3 101.96 3 104 C0.03 104 -2.94 104 -6 104 C-6 98.06 -6 92.12 -6 86 C-6.99 86 -7.98 86 -9 86 C-8.979375 86.804375 -8.95875 87.60875 -8.9375 88.4375 C-9 91 -9 91 -10 92 C-12.33297433 92.04092937 -14.66705225 92.04241723 -17 92 C-16.979375 92.804375 -16.95875 93.60875 -16.9375 94.4375 C-17 97 -17 97 -18 98 C-21.5 98.125 -21.5 98.125 -25 98 C-26 97 -26 97 -26.0625 94.4375 C-26.041875 93.633125 -26.02125 92.82875 -26 92 C-28.97 92 -31.94 92 -35 92 C-35.33 93.98 -35.66 95.96 -36 98 C-38.97 98 -41.94 98 -45 98 C-45 86.45 -45 74.9 -45 63 C-41.7 63 -38.4 63 -35 63 C-35 64.98 -35 66.96 -35 69 C-32.03 69 -29.06 69 -26 69 C-26 60.75 -26 52.5 -26 44 C-23.03 44 -20.06 44 -17 44 C-17 46.31 -17 48.62 -17 51 C-15.02 50.505 -15.02 50.505 -13 50 C-13.01160156 48.85402344 -13.02320312 47.70804688 -13.03515625 46.52734375 C-13.04454242 44.99739748 -13.05364173 43.46744942 -13.0625 41.9375 C-13.07087891 41.18533203 -13.07925781 40.43316406 -13.08789062 39.65820312 C-13.10808341 34.99366882 -12.77595959 30.60076827 -12 26 C-10.02 26 -8.04 26 -6 26 C-6 21.38 -6 16.76 -6 12 C-4.02 12 -2.04 12 0 12 C0 8.04 0 4.08 0 0 Z M2 1 C2 5.29 2 9.58 2 14 C0.02 14 -1.96 14 -4 14 C-4 18.29 -4 22.58 -4 27 C-6.31 27 -8.62 27 -11 27 C-11 35.25 -11 43.5 -11 52 C-13.31 52 -15.62 52 -18 52 C-18 50.02 -18 48.04 -18 46 C-19.98 46 -21.96 46 -24 46 C-24 54.25 -24 62.5 -24 71 C-28.29 71 -32.58 71 -37 71 C-37 69.02 -37 67.04 -37 65 C-38.98 65 -40.96 65 -43 65 C-43 75.56 -43 86.12 -43 97 C-41.02 97 -39.04 97 -37 97 C-37 94.69 -37 92.38 -37 90 C-33.04 90.33 -29.08 90.66 -25 91 C-24.67 92.65 -24.34 94.3 -24 96 C-22.35 96 -20.7 96 -19 96 C-18.67 94.35 -18.34 92.7 -18 91 C-14.535 90.505 -14.535 90.505 -11 90 C-11 88.02 -11 86.04 -11 84 C-9.02 84 -7.04 84 -5 84 C-5 81.69 -5 79.38 -5 77 C-2.69 77 -0.38 77 2 77 C2 79.31 2 81.62 2 84 C0.02 84 -1.96 84 -4 84 C-4 89.94 -4 95.88 -4 102 C-2.35 102 -0.7 102 1 102 C1 100.35 1 98.7 1 97 C5.62 97 10.24 97 15 97 C15 98.65 15 100.3 15 102 C16.65 102 18.3 102 20 102 C20 96.39 20 90.78 20 85 C18.02 85 16.04 85 14 85 C14 82.36 14 79.72 14 77 C16.31 77 18.62 77 21 77 C21 79.31 21 81.62 21 84 C22.98 84 24.96 84 27 84 C27 85.98 27 87.96 27 90 C28.98 90 30.96 90 33 90 C33 92.31 33 94.62 33 97 C35.64 97 38.28 97 41 97 C41 95.02 41 93.04 41 91 C44.96 91 48.92 91 53 91 C53 92.65 53 94.3 53 96 C54.98 96 56.96 96 59 96 C59 83.79 59 71.58 59 59 C57.02 59 55.04 59 53 59 C53 62.96 53 66.92 53 71 C48.71 71 44.42 71 40 71 C40 62.75 40 54.5 40 46 C37.69 46 35.38 46 33 46 C33 47.98 33 49.96 33 52 C31.02 52 29.04 52 27 52 C27 43.75 27 35.5 27 27 C24.69 27 22.38 27 20 27 C20 22.71 20 18.42 20 14 C18.02 14 16.04 14 14 14 C14 9.71 14 5.42 14 1 C10.04 1 6.08 1 2 1 Z " fill="#545454" transform="translate(54,4)"/>
<path d="M0 0 C3.3 0 6.6 0 10 0 C10 13.53 10 27.06 10 41 C6.7 41 3.4 41 0 41 C0 39.02 0 37.04 0 35 C-2.97 35 -5.94 35 -9 35 C-9 36.98 -9 38.96 -9 41 C-12.3 41 -15.6 41 -19 41 C-19 39.02 -19 37.04 -19 35 C-20.98 35 -22.96 35 -25 35 C-25.66 33.68 -26.32 32.36 -27 31 C-27.33 36.28 -27.66 41.56 -28 47 C-35.71484375 47.09765625 -35.71484375 47.09765625 -38 47 C-39 46 -39 46 -39.0625 43.4375 C-39.041875 42.633125 -39.02125 41.82875 -39 41 C-41.97 41 -44.94 41 -48 41 C-48 42.98 -48 44.96 -48 47 C-50.97 47 -53.94 47 -57 47 C-57 41.06 -57 35.12 -57 29 C-57.99 29 -58.98 29 -60 29 C-60 30.65 -60 32.3 -60 34 C-60.33 34 -60.66 34 -61 34 C-61 32.02 -61 30.04 -61 28 C-59.35 28 -57.7 28 -56 28 C-56 33.94 -56 39.88 -56 46 C-53.69 46 -51.38 46 -49 46 C-49 44.02 -49 42.04 -49 40 C-44.71 40 -40.42 40 -36 40 C-36 41.65 -36 43.3 -36 45 C-34.35 45 -32.7 45 -31 45 C-31 39.39 -31 33.78 -31 28 C-32.98 28 -34.96 28 -37 28 C-37 25.36 -37 22.72 -37 20 C-34.69 20 -32.38 20 -30 20 C-30 22.31 -30 24.62 -30 27 C-28.02 27 -26.04 27 -24 27 C-24 28.98 -24 30.96 -24 33 C-22.02 33 -20.04 33 -18 33 C-18 35.31 -18 37.62 -18 40 C-15.36 40 -12.72 40 -10 40 C-10 38.02 -10 36.04 -10 34 C-6.04 34 -2.08 34 2 34 C2 35.98 2 37.96 2 40 C4.31 40 6.62 40 9 40 C9 27.13 9 14.26 9 1 C6.36 1 3.72 1 1 1 C1 4.96 1 8.92 1 13 C0.01 12.67 -0.98 12.34 -2 12 C-1.34 12 -0.68 12 0 12 C0 8.04 0 4.08 0 0 Z " fill="#2B2B2B" transform="translate(105,61)"/>
<path d="M0 0 C2.31 0 4.62 0 7 0 C7 2.31 7 4.62 7 7 C5.02 7 3.04 7 1 7 C1 12.94 1 18.88 1 25 C2.65 25 4.3 25 6 25 C6 23.35 6 21.7 6 20 C6.33 20 6.66 20 7 20 C7 21.98 7 23.96 7 26 C4.69 26 2.38 26 0 26 C0 20.06 0 14.12 0 8 C-1.65 8 -3.3 8 -5 8 C-5 10.31 -5 12.62 -5 15 C-7.31 15 -9.62 15 -12 15 C-11.979375 15.804375 -11.95875 16.60875 -11.9375 17.4375 C-12 20 -12 20 -13 21 C-16.5 21.125 -16.5 21.125 -20 21 C-21 20 -21 20 -21.0625 17.4375 C-21.041875 16.633125 -21.02125 15.82875 -21 15 C-23.97 15 -26.94 15 -30 15 C-30.33 16.98 -30.66 18.96 -31 21 C-33.31 21 -35.62 21 -38 21 C-38 20.67 -38 20.34 -38 20 C-36.02 20 -34.04 20 -32 20 C-32 17.69 -32 15.38 -32 13 C-30.02090602 12.97313447 -28.04171029 12.95366625 -26.0625 12.9375 C-24.96035156 12.92589844 -23.85820312 12.91429688 -22.72265625 12.90234375 C-20 13 -20 13 -19 14 C-18.95936168 15.66617115 -18.957279 17.33388095 -19 19 C-17.35 19 -15.7 19 -14 19 C-14.020625 18.195625 -14.04125 17.39125 -14.0625 16.5625 C-14 14 -14 14 -13 13 C-10.66702567 12.95907063 -8.33294775 12.95758277 -6 13 C-6 11.02 -6 9.04 -6 7 C-4.02 7 -2.04 7 0 7 C0 4.69 0 2.38 0 0 Z " fill="#878787" transform="translate(49,81)"/>
<path d="M0 0 C2.97 0 5.94 0 9 0 C9 0.33 9 0.66 9 1 C6.69 1 4.38 1 2 1 C2 9.58 2 18.16 2 27 C-2.29 27 -6.58 27 -11 27 C-11 25.02 -11 23.04 -11 21 C-12.98 21 -14.96 21 -17 21 C-17 31.89 -17 42.78 -17 54 C-17.66 54 -18.32 54 -19 54 C-19 42.45 -19 30.9 -19 19 C-15.7 19 -12.4 19 -9 19 C-9 20.98 -9 22.96 -9 25 C-6.03 25 -3.06 25 0 25 C0 16.75 0 8.5 0 0 Z " fill="#464646" transform="translate(28,48)"/>
<path d="M0 0 C2.31 0 4.62 0 7 0 C7 2.31 7 4.62 7 7 C8.98 7 10.96 7 13 7 C13 8.98 13 10.96 13 13 C14.98 13 16.96 13 19 13 C19 13.33 19 13.66 19 14 C16.69 14 14.38 14 12 14 C12 12.02 12 10.04 12 8 C10.35 8 8.7 8 7 8 C7 13.94 7 19.88 7 26 C4.69 26 2.38 26 0 26 C0 24.02 0 22.04 0 20 C0.33 20 0.66 20 1 20 C1 21.65 1 23.3 1 25 C2.65 25 4.3 25 6 25 C6 19.39 6 13.78 6 8 C4.02 8 2.04 8 0 8 C0 5.36 0 2.72 0 0 Z " fill="#949494" transform="translate(68,81)"/>
<path d="M0 0 C1.65 0 3.3 0 5 0 C5 1.65 5 3.3 5 5 C4.34 4.34 3.68 3.68 3 3 C2.67 8.28 2.34 13.56 2 19 C1.34 19 0.68 19 0 19 C0 12.73 0 6.46 0 0 Z " fill="#b6b90e" transform="translate(75,89)"/>
<path d="M0 0 C3.96 0 7.92 0 12 0 C12 2.31 12 4.62 12 7 C11.67 7 11.34 7 11 7 C11 5.35 11 3.7 11 2 C8.03 2 5.06 2 2 2 C1.67 3.98 1.34 5.96 1 8 C-1.31 8 -3.62 8 -6 8 C-6 7.67 -6 7.34 -6 7 C-4.02 7 -2.04 7 0 7 C0 4.69 0 2.38 0 0 Z " fill="#4C4C4C" transform="translate(17,94)"/>
<path d="M0 0 C1.65 0 3.3 0 5 0 C5 1.98 5 3.96 5 6 C3.35 6 1.7 6 0 6 C0 4.02 0 2.04 0 0 Z " fill="#b6b90e" transform="translate(69,82)"/>
<path d="M0 0 C1.65 0 3.3 0 5 0 C5 1.98 5 3.96 5 6 C3.35 6 1.7 6 0 6 C0 4.02 0 2.04 0 0 Z " fill="#b6b90e" transform="translate(50,82)"/>
</svg>
